<svg width="27" height="27" viewBox="0 0 27 27" fill="none" xmlns="http://www.w3.org/2000/svg">
<path d="M6.38086 3.6123H2.37305C1.93583 3.6123 1.58203 3.9661 1.58203 4.40332C1.58203 4.84054 1.93583 5.19434 2.37305 5.19434H6.38086C6.81808 5.19434 7.17188 4.84054 7.17188 4.40332C7.17188 3.9661 6.81808 3.6123 6.38086 3.6123Z" fill="black"/>
<path d="M6.38086 9.94043H2.37305C1.93583 9.94043 1.58203 10.2942 1.58203 10.7314C1.58203 11.1687 1.93583 11.5225 2.37305 11.5225H6.38086C6.81808 11.5225 7.17188 11.1687 7.17188 10.7314C7.17188 10.2942 6.81808 9.94043 6.38086 9.94043Z" fill="black"/>
<path d="M4.79883 6.77637H0.791016C0.353795 6.77637 0 7.13016 0 7.56738C0 8.0046 0.353795 8.3584 0.791016 8.3584H4.79883C5.23605 8.3584 5.58984 8.0046 5.58984 7.56738C5.58984 7.13016 5.23605 6.77637 4.79883 6.77637Z" fill="black"/>
<path d="M25.418 10.7314H20.6192V7.56738C20.6192 6.17805 18.9196 5.44651 17.9181 6.44931L11.5904 12.777C10.9725 13.395 10.9725 14.3961 11.5904 15.0141L15.218 18.6416L10.7994 23.0602C10.1814 23.6782 10.1814 24.6793 10.7994 25.2973C11.4174 25.9152 12.4185 25.9153 13.0365 25.2973L18.5736 19.7601C19.1916 19.1422 19.1916 18.141 18.5736 17.5231L14.9461 13.8955L17.4551 11.3865V12.3135C17.4551 13.1871 18.1635 13.8955 19.0371 13.8955H25.418C26.2916 13.8955 27 13.1871 27 12.3135C27 11.4398 26.2916 10.7314 25.418 10.7314Z" fill="black"/>
<path d="M14.7731 2.69153C14.1443 2.27361 13.31 2.3563 12.777 2.88929L8.42639 7.23987C7.80839 7.85787 7.80839 8.85898 8.42639 9.47697C9.04438 10.095 10.0455 10.0949 10.6635 9.47692L14.0972 6.04328L15.2539 6.87648L16.7993 5.33105C17.0578 5.07254 17.3627 4.87189 17.6961 4.71521L14.7731 2.69153Z" fill="black"/>
<path d="M10.4719 16.1326C10.0711 15.7318 9.80349 15.2385 9.66243 14.705L1.30725 23.0602C0.689251 23.6782 0.689251 24.6793 1.30725 25.2973C1.92519 25.9152 2.92635 25.9153 3.54434 25.2973L11.5904 17.2512L10.4719 16.1326Z" fill="black"/>
<path d="M21.4102 5.98535C22.7208 5.98535 23.7832 4.9229 23.7832 3.6123C23.7832 2.30171 22.7208 1.23926 21.4102 1.23926C20.0996 1.23926 19.0371 2.30171 19.0371 3.6123C19.0371 4.9229 20.0996 5.98535 21.4102 5.98535Z" fill="black"/>
</svg>
