<svg width="33" height="33" viewBox="0 0 33 33" fill="none" xmlns="http://www.w3.org/2000/svg">
<g clip-path="url(#clip0)">
<path d="M16.5 0C11.1867 0.00605859 6.88106 4.31178 6.875 9.62498V15.8125C6.875 16.1922 7.18283 16.5 7.56252 16.5H10.3125C10.6922 16.5 11 16.1922 11 15.8125V9.62498C11 6.58743 13.4624 4.125 16.5 4.125C19.5375 4.125 22 6.58743 22 9.62498V15.8125C22 16.1922 22.3078 16.5 22.6875 16.5H25.4375C25.8172 16.5 26.125 16.1922 26.125 15.8125V9.62498C26.1189 4.31178 21.8132 0.00605859 16.5 0Z" fill="#455A64"/>
<path d="M25.4375 15.125H7.5625C6.42342 15.125 5.5 16.0484 5.5 17.1875V29.5625C5.5 31.461 7.03901 33 8.93748 33H24.0625C25.961 33 27.5 31.461 27.5 29.5625V17.1875C27.5 16.0484 26.5766 15.125 25.4375 15.125Z" fill="#FFC107"/>
<path d="M18.3578 24.0211C18.9287 23.5046 19.2532 22.7698 19.2501 21.9999C19.2501 20.4811 18.0189 19.2499 16.5001 19.2499C14.9813 19.2499 13.7501 20.4811 13.7501 21.9999C13.7471 22.7698 14.0715 23.5046 14.6424 24.0211L13.7845 26.5951C13.6644 26.9554 13.8592 27.3447 14.2194 27.4647C14.2898 27.4881 14.3634 27.5 14.4376 27.4999H18.5626C18.9422 27.5004 19.2505 27.193 19.2509 26.8133C19.251 26.7392 19.2391 26.6655 19.2157 26.5952L18.3578 24.0211Z" fill="#455A64"/>
</g>
<defs>
<clipPath id="clip0">
<rect width="33" height="33" fill="white"/>
</clipPath>
</defs>
</svg>
