<svg width="44" height="46" viewBox="0 0 44 46" fill="none" xmlns="http://www.w3.org/2000/svg">
<g clip-path="url(#clip0)">
<path d="M38.8417 30.7185C37.6591 34.0694 35.8705 36.983 33.525 39.3775C30.8553 42.103 27.3594 44.2687 23.1343 45.8136C22.9957 45.8642 22.851 45.9056 22.7056 45.9361C22.5136 45.9758 22.3182 45.9972 22.1245 46H22.0866C21.8802 46 21.6727 45.9782 21.4669 45.9361C21.3216 45.9056 21.1789 45.8642 21.0409 45.8147C16.8108 44.2723 13.3106 42.1076 10.6381 39.3821C8.29162 36.9875 6.50338 34.0757 5.32241 30.7248C3.17498 24.6323 3.29717 17.9207 3.39553 12.5272L3.3972 12.4444C3.41701 11.999 3.42977 11.5312 3.43682 11.0146C3.47274 8.47828 5.40163 6.37994 7.82802 6.2385C12.8869 5.94335 16.8004 4.21842 20.1443 0.811026L20.1735 0.78295C20.7287 0.250555 21.4283 -0.0105532 22.1245 0.000326394C22.7959 0.00945118 23.4646 0.270209 24.0001 0.78295L24.0286 0.811026C27.3731 4.21842 31.2866 5.94335 36.3455 6.2385C38.7719 6.37994 40.7008 8.47828 40.7367 11.0146C40.7438 11.5347 40.7565 12.0018 40.7763 12.4444L40.7774 12.4795C40.8754 17.8831 40.9969 24.608 38.8417 30.7185Z" fill="#00DD80"/>
<path d="M38.8417 30.7185C37.6591 34.0694 35.8705 36.983 33.525 39.3776C30.8552 42.1031 27.3593 44.2688 23.1343 45.8137C22.9956 45.8642 22.851 45.9057 22.7056 45.9362C22.5136 45.9758 22.3182 45.9972 22.1245 46.0001V0.000366211C22.7959 0.009491 23.4646 0.270249 24 0.78299L24.0286 0.811066C27.3731 4.21846 31.2866 5.9434 36.3455 6.23855C38.7719 6.37998 40.7008 8.47832 40.7367 11.0147C40.7438 11.5348 40.7565 12.0019 40.7763 12.4444L40.7773 12.4795C40.8753 17.8832 40.9969 24.6081 38.8417 30.7185Z" fill="#00AA63"/>
<path d="M33.0515 23C33.0515 29.3077 28.1527 34.4421 22.1243 34.4646H22.0857C16.0396 34.4646 11.1196 29.3213 11.1196 23C11.1196 16.679 16.0396 11.5358 22.0857 11.5358H22.1243C28.1527 11.5582 33.0515 16.6927 33.0515 23Z" fill="white"/>
<path d="M33.0517 23C33.0517 29.3077 28.1529 34.4421 22.1245 34.4646V11.5358C28.1529 11.5582 33.0517 16.6927 33.0517 23Z" fill="#E1EBF0"/>
<path d="M27.0631 21.3491L22.1244 26.513L21.0572 27.6287C20.8051 27.8923 20.4745 28.0239 20.1442 28.0239C19.8135 28.0239 19.4832 27.8923 19.2307 27.6287L16.9363 25.2289C16.4321 24.7018 16.4321 23.8479 16.9363 23.3204C17.4398 22.7933 18.2576 22.7933 18.7618 23.3204L20.1442 24.7657L25.2376 19.4407C25.7418 18.9132 26.5596 18.9132 27.0631 19.4407C27.5673 19.9678 27.5673 20.8227 27.0631 21.3491Z" fill="#B4D2D7"/>
<path d="M27.0632 21.3491L22.1245 26.5131V22.695L25.2377 19.4407C25.7419 18.9132 26.5597 18.9132 27.0632 19.4407C27.5674 19.9678 27.5674 20.8227 27.0632 21.3491Z" fill="#6FA5AA"/>
</g>
<defs>
<clipPath id="clip0">
<rect width="44" height="46" fill="white"/>
</clipPath>
</defs>
</svg>
