<svg width="28" height="28" viewBox="0 0 28 28" fill="none" xmlns="http://www.w3.org/2000/svg">
<g clip-path="url(#clip0)">
<path d="M14.0009 13.4288C16.9844 13.4288 19.4031 10.4911 19.4031 6.86721C19.4031 3.24326 18.609 0.305542 14.0009 0.305542C9.3929 0.305542 8.59863 3.24326 8.59863 6.86721C8.59863 10.4911 11.0174 13.4288 14.0009 13.4288Z" fill="black"/>
<path d="M3.79696 23.4475C3.79604 23.2266 3.79512 23.3853 3.79696 23.4475V23.4475Z" fill="black"/>
<path d="M24.2041 23.6201C24.207 23.5597 24.2051 23.2005 24.2041 23.6201V23.6201Z" fill="black"/>
<path d="M24.1923 23.1826C24.0922 16.8697 23.2678 15.0709 16.9586 13.9323C16.9586 13.9323 16.0705 15.0639 14.0005 15.0639C11.9305 15.0639 11.0423 13.9323 11.0423 13.9323C4.80197 15.0585 3.92736 16.8306 3.81236 22.9775C3.80293 23.4795 3.79856 23.5059 3.79688 23.4476C3.79726 23.5568 3.79772 23.7587 3.79772 24.1108C3.79772 24.1108 5.29977 27.1389 14.0005 27.1389C22.7011 27.1389 24.2033 24.1108 24.2033 24.1108C24.2033 23.8846 24.2035 23.7273 24.2037 23.6202C24.202 23.6563 24.1986 23.5864 24.1923 23.1826Z" fill="black"/>
</g>
<defs>
<clipPath id="clip0">
<rect width="26.8333" height="26.8333" fill="white" transform="translate(0.583984 0.305542)"/>
</clipPath>
</defs>
</svg>
