<svg width="20" height="24" viewBox="0 0 20 24" fill="none" xmlns="http://www.w3.org/2000/svg">
<path d="M3.37748 7.77631H2.70922L2.63245 8.44015L1.31118 19.8648C1.21847 20.3561 1.19818 20.9622 1.49116 21.5252C1.80396 22.1262 2.39023 22.5228 3.19263 22.7269L3.28361 22.75H3.37748H16.6225H16.7164L16.8074 22.7269C17.6098 22.5228 18.196 22.1262 18.5088 21.5252C18.8018 20.9622 18.7815 20.356 18.6888 19.8648L17.3676 8.44015L17.2908 7.77631H16.6225H3.37748Z" stroke="black" stroke-width="1.5"/>
<path d="M6.27439 3.67342C5.37689 5.2049 4.90137 7.41188 5.11083 10.2386V11.8947H5.86083H6.61083H13.389H14.139H14.889V10.2386C15.0984 7.41188 14.6229 5.2049 13.7254 3.67342C12.8227 2.133 11.465 1.25 9.9999 1.25C8.53476 1.25 7.17714 2.133 6.27439 3.67342Z" stroke="black" stroke-width="1.5"/>
</svg>
