<svg width="51" height="51" viewBox="0 0 51 51" fill="none" xmlns="http://www.w3.org/2000/svg">
<path d="M29.4313 2.55V18.275C29.4313 19.6563 28.2626 20.825 26.8813 20.825H13.3875L3.39997 26.0312V20.8249H2.55C1.16872 20.8249 0 19.6562 0 18.2749V2.55C0 1.16872 1.16872 0 2.55 0H26.9875C28.3688 0 29.4313 1.16872 29.4313 2.55Z" fill="#F3705A"/>
<path d="M6.90627 13.175C8.43193 13.175 9.66873 11.9382 9.66873 10.4125C9.66873 8.88682 8.43193 7.65002 6.90627 7.65002C5.3806 7.65002 4.1438 8.88682 4.1438 10.4125C4.1438 11.9382 5.3806 13.175 6.90627 13.175Z" fill="white"/>
<path d="M14.7688 13.175C16.2945 13.175 17.5313 11.9382 17.5313 10.4125C17.5313 8.88682 16.2945 7.65002 14.7688 7.65002C13.2431 7.65002 12.0063 8.88682 12.0063 10.4125C12.0063 11.9382 13.2431 13.175 14.7688 13.175Z" fill="white"/>
<path d="M22.6314 13.175C24.157 13.175 25.3938 11.9382 25.3938 10.4125C25.3938 8.88682 24.157 7.65002 22.6314 7.65002C21.1057 7.65002 19.8689 8.88682 19.8689 10.4125C19.8689 11.9382 21.1057 13.175 22.6314 13.175Z" fill="white"/>
<path d="M21.5686 8.81868V24.4374C21.5686 25.8187 22.7373 26.9874 24.1186 26.9874H37.7186L47.7061 32.1937V26.9874H48.4499C49.8312 26.9874 50.9999 25.8187 50.9999 24.4374V8.81868C50.9999 7.43739 49.8312 6.26868 48.4499 6.26868H24.0124C22.6311 6.26868 21.5686 7.43749 21.5686 8.81868Z" fill="#FFD15C"/>
<path d="M44.094 19.4438C45.6197 19.4438 46.8565 18.207 46.8565 16.6813C46.8565 15.1556 45.6197 13.9188 44.094 13.9188C42.5683 13.9188 41.3315 15.1556 41.3315 16.6813C41.3315 18.207 42.5683 19.4438 44.094 19.4438Z" fill="white"/>
<path d="M36.2312 19.4438C37.7569 19.4438 38.9937 18.207 38.9937 16.6813C38.9937 15.1556 37.7569 13.9188 36.2312 13.9188C34.7055 13.9188 33.4688 15.1556 33.4688 16.6813C33.4688 18.207 34.7055 19.4438 36.2312 19.4438Z" fill="white"/>
<path d="M28.3689 19.4438C29.8946 19.4438 31.1314 18.207 31.1314 16.6813C31.1314 15.1556 29.8946 13.9188 28.3689 13.9188C26.8432 13.9188 25.6064 15.1556 25.6064 16.6813C25.6064 18.207 26.8432 19.4438 28.3689 19.4438Z" fill="white"/>
<path d="M36.975 27.625V43.35C36.975 44.7313 35.8063 45.9 34.425 45.9H26.0312L22.2062 51L18.3812 45.7937H10.0937C8.71242 45.7937 7.5437 44.625 7.5437 43.2437V27.625C7.5437 26.2437 8.71242 25.075 10.0937 25.075H34.5312C35.9125 25.075 36.975 26.2438 36.975 27.625Z" fill="#66C6B9"/>
<path d="M30.0686 38.25C31.5943 38.25 32.8311 37.0132 32.8311 35.4876C32.8311 33.9619 31.5943 32.7251 30.0686 32.7251C28.543 32.7251 27.3062 33.9619 27.3062 35.4876C27.3062 37.0132 28.543 38.25 30.0686 38.25Z" fill="white"/>
<path d="M22.3123 38.25C23.8379 38.25 25.0747 37.0132 25.0747 35.4876C25.0747 33.9619 23.8379 32.7251 22.3123 32.7251C20.7866 32.7251 19.5498 33.9619 19.5498 35.4876C19.5498 37.0132 20.7866 38.25 22.3123 38.25Z" fill="white"/>
<path d="M14.45 38.25C15.9756 38.25 17.2124 37.0132 17.2124 35.4876C17.2124 33.9619 15.9756 32.7251 14.45 32.7251C12.9243 32.7251 11.6875 33.9619 11.6875 35.4876C11.6875 37.0132 12.9243 38.25 14.45 38.25Z" fill="white"/>
</svg>
