<svg width="73" height="73" viewBox="0 0 73 73" fill="none" xmlns="http://www.w3.org/2000/svg">
<path d="M60.0254 24.1814V40.7773C60.0254 47.7068 47.9202 51.4706 36.5 51.4706C25.0798 51.4706 12.9746 47.7068 12.9746 40.7773V24.1814C12.9746 23.0263 13.9153 22.0427 15.1133 22.0427H57.8867C59.0847 22.0427 60.0254 23.0263 60.0254 24.1814Z" fill="#444444"/>
<path d="M60.0254 24.1814V40.7773C60.0254 47.7068 47.9202 51.4706 36.5 51.4706V22.0427H57.8867C59.0847 22.0427 60.0254 23.0263 60.0254 24.1814Z" fill="#292929"/>
<path d="M72.9999 19.3906C72.9999 20.289 72.4441 21.1016 71.631 21.4006L37.2696 34.2327C37.0134 34.3184 36.7567 34.3613 36.4999 34.3613C36.2432 34.3613 35.9864 34.3184 35.7302 34.2327L1.3689 21.4006V17.3801L35.7302 4.54802C35.9864 4.46281 36.2432 4.41992 36.4999 4.41992C36.7567 4.41992 37.0134 4.46281 37.2696 4.54802L71.631 17.3801C72.4441 17.6797 72.9999 18.4923 72.9999 19.3906Z" fill="#6E6E6E"/>
<path d="M73 19.3906C73 20.289 72.4442 21.1016 71.631 21.4006L37.2697 34.2327C37.0135 34.3184 36.7568 34.3613 36.5 34.3613V4.41992C36.7568 4.41992 37.0135 4.46281 37.2697 4.54802L71.631 17.3801C72.4442 17.6797 73 18.4923 73 19.3906Z" fill="#5A5A5A"/>
<path d="M38.6387 19.3906C38.6387 20.5881 37.698 21.5293 36.5 21.5293H4.27734V53.2669L8.42603 65.7569C8.81144 66.8686 8.21217 68.1095 7.1005 68.4514C5.9454 68.8368 4.74796 68.2376 4.406 67.1253L4.27734 66.741C4.10636 67.7675 3.20801 68.5801 2.13867 68.5801C0.940681 68.5801 0 67.6388 0 66.4414V19.3906C0 18.1926 0.940681 17.252 2.13867 17.252H36.5C37.698 17.252 38.6387 18.1926 38.6387 19.3906Z" fill="#FDBF00"/>
</svg>
