<svg width="55" height="55" viewBox="0 0 55 55" fill="none" xmlns="http://www.w3.org/2000/svg">
<g clip-path="url(#clip0)">
<path d="M1.46937 48.9116L0.283859 51.231C-0.227362 52.2312 -0.0356137 53.447 0.758664 54.2412C1.55294 55.0355 2.76874 55.2273 3.76895 54.716L6.08829 53.5305L1.46937 48.9116Z" fill="#26457D"/>
<path d="M39.8586 4.47437L50.5163 15.132L47.6743 17.9741L37.0166 7.31639L39.8586 4.47437Z" fill="#E4FBEF"/>
<path d="M48.563 13.1777L50.5169 15.1316L47.6749 17.9736L45.721 16.0198L48.563 13.1777Z" fill="#D3EFFB"/>
<path d="M14.8987 50.5746C14.8069 50.63 14.7128 50.6819 14.6176 50.7295C14.4151 50.8335 14.2037 50.921 13.9858 50.9907C13.9814 50.9929 13.978 50.994 13.9736 50.9951L6.08887 53.5303L1.46973 48.9112L4.00499 41.0264C4.00606 41.022 4.00725 41.0187 4.00939 41.0143C4.07911 40.7963 4.16655 40.5849 4.27054 40.3813C4.31813 40.2861 4.37012 40.1932 4.42544 40.1013L14.8987 50.5746Z" fill="#F1D59D"/>
<path d="M50.5208 15.1385L39.8616 4.47925L43.237 1.10384C44.7088 -0.367947 47.0949 -0.367947 48.5666 1.10384L53.8962 6.43347C55.368 7.90526 55.368 10.2914 53.8962 11.7631L50.5208 15.1385Z" fill="#DF75A5"/>
<path d="M53.8964 6.43322L51.9422 4.479C53.414 5.95079 53.414 8.33696 51.9422 9.80864L48.5668 13.184L50.521 15.1383L53.8964 11.7629C55.3681 10.2912 55.3681 7.90501 53.8964 6.43322V6.43322Z" fill="#DD5790"/>
<path d="M40.5716 10.8749L7.88591 43.5618L7.37351 44.073C7.15555 43.855 6.8379 43.7355 6.49813 43.7919L5.00969 44.0398C4.33025 44.1538 3.74039 43.564 3.85329 42.8834L4.27052 40.3814C4.31811 40.2862 4.3701 40.1933 4.42542 40.1014C4.61019 39.7938 4.83373 39.5072 5.0894 39.2515L37.0193 7.32153L40.5716 10.8749Z" fill="#FFE07D"/>
<path d="M47.6785 17.9808L15.7486 49.9107C15.493 50.1663 15.2064 50.3899 14.8987 50.5746C14.8069 50.63 14.7128 50.682 14.6176 50.7295L12.1166 51.1468C11.436 51.2597 10.8462 50.6698 10.9602 49.9904L11.2081 48.5019C11.2645 48.1622 11.1451 47.8446 10.927 47.6266L11.4394 47.1153L44.1251 14.4285L47.6785 17.9808Z" fill="#FFC250"/>
<path d="M40.572 10.8748L7.37378 44.0729C7.59206 44.2912 7.71108 44.6087 7.65447 44.9488L7.40644 46.4369C7.29311 47.1171 7.88274 47.7067 8.56294 47.5934L10.0511 47.3453C10.3912 47.2886 10.7086 47.4077 10.9269 47.626L44.1251 14.4278L40.572 10.8748Z" fill="#FFD064"/>
</g>
<defs>
<clipPath id="clip0">
<rect width="55" height="55" fill="white"/>
</clipPath>
</defs>
</svg>
