<svg width="59" height="62" viewBox="0 0 59 62" fill="none" xmlns="http://www.w3.org/2000/svg">
<g clip-path="url(#clip0)">
<path d="M52.0833 41.4032C50.4974 45.9196 48.0991 49.8466 44.954 53.0741C41.3741 56.7476 36.6864 59.6666 31.021 61.7488C30.8351 61.8169 30.6411 61.8728 30.4462 61.9139C30.1887 61.9674 29.9267 61.9962 29.667 62H29.6161C29.3393 62 29.0611 61.9707 28.7852 61.9139C28.5903 61.8728 28.399 61.8169 28.214 61.7502C22.5418 59.6713 17.8483 56.7537 14.2647 53.0802C11.1183 49.8528 8.72044 45.9281 7.13686 41.4117C4.25735 33.2 4.4212 24.1539 4.55309 16.8845L4.55534 16.7729C4.5819 16.1726 4.59901 15.5421 4.60846 14.8458C4.65662 11.4272 7.2431 8.59905 10.4967 8.40842C17.2802 8.01061 22.5279 5.6857 27.0117 1.09312L27.0508 1.05528C27.7953 0.337705 28.7334 -0.0142238 29.667 0.000439922C30.5673 0.0127385 31.4639 0.364194 32.1819 1.05528L32.2202 1.09312C36.7049 5.6857 41.9525 8.01061 48.7361 8.40842C51.9896 8.59905 54.5761 11.4272 54.6243 14.8458C54.6337 15.5468 54.6508 16.1764 54.6774 16.7729L54.6787 16.8202C54.8102 24.1033 54.9731 33.1674 52.0833 41.4032Z" fill="#00DD80"/>
<path d="M52.083 41.4032C50.4972 45.9197 48.0989 49.8467 44.9538 53.0741C41.3738 56.7476 36.6861 59.6666 31.0208 61.7489C30.8348 61.817 30.6408 61.8728 30.4459 61.914C30.1885 61.9674 29.9265 61.9963 29.6667 62.0001V0.000488281C30.567 0.0127869 31.4637 0.364243 32.1816 1.05533L32.2199 1.09317C36.7046 5.68575 41.9523 8.01066 48.7358 8.40847C51.9894 8.5991 54.5758 11.4273 54.624 14.8458C54.6335 15.5469 54.6506 16.1765 54.6771 16.7729L54.6785 16.8202C54.8099 24.1034 54.9729 33.1674 52.083 41.4032Z" fill="#00AA63"/>
<path d="M44.319 31C44.319 39.5016 37.7502 46.422 29.6667 46.4522H29.615C21.5076 46.4522 14.9104 39.5201 14.9104 31C14.9104 22.4804 21.5076 15.5482 29.615 15.5482H29.6667C37.7502 15.5785 44.319 22.4988 44.319 31Z" fill="white"/>
<path d="M44.3191 31C44.3191 39.5016 37.7503 46.422 29.6667 46.4522V15.5482C37.7503 15.5785 44.3191 22.4988 44.3191 31Z" fill="#E1EBF0"/>
<path d="M36.2892 28.7748L29.6668 35.7349L28.2358 37.2386C27.8978 37.5939 27.4544 37.7712 27.0114 37.7712C26.5681 37.7712 26.1251 37.5939 25.7866 37.2386L22.71 34.0041C22.0339 33.2936 22.0339 32.1427 22.71 31.4318C23.3852 30.7213 24.4817 30.7213 25.1578 31.4318L27.0114 33.3797L33.8413 26.2025C34.5174 25.4916 35.614 25.4916 36.2892 26.2025C36.9653 26.913 36.9653 28.0653 36.2892 28.7748Z" fill="#B4D2D7"/>
<path d="M36.2891 28.7748L29.6667 35.7349V30.5889L33.8413 26.2025C34.5174 25.4916 35.6139 25.4916 36.2891 26.2025C36.9652 26.913 36.9652 28.0653 36.2891 28.7748Z" fill="#6FA5AA"/>
</g>
<defs>
<clipPath id="clip0">
<rect width="59" height="62" fill="white"/>
</clipPath>
</defs>
</svg>
