<svg width="54" height="52" viewBox="0 0 54 52" fill="none" xmlns="http://www.w3.org/2000/svg">
<path d="M14.9409 41.1985C13.5797 39.8878 9.96595 36.0119 9.94222 29.5831C9.94307 25.2 11.7182 21.0772 14.9409 17.9742L7.91174 11.205C2.80979 16.1175 0 22.6456 0 29.5863C0 36.5271 2.80979 43.0552 7.91174 47.9677C8.22066 48.2652 8.62545 48.4139 9.03034 48.4139C9.43524 48.4139 9.84013 48.2651 10.149 47.9676L14.9409 43.3529C15.5588 42.758 15.5588 41.7934 14.9409 41.1985Z" fill="#9BFF00"/>
<path d="M46.0884 11.2048C40.9862 6.29193 34.2072 3.5863 27.0002 3.5863C19.7932 3.5863 13.0142 6.29193 7.91191 11.2049C7.29397 11.8 7.29471 12.7649 7.91191 13.3594L12.7038 17.9741C13.3217 18.5691 14.324 18.5685 14.9413 17.974C18.164 14.8698 22.4467 13.1602 27.0002 13.1602C31.5537 13.1602 35.8363 14.8698 39.0591 17.9739C39.3558 18.2595 39.7583 18.4202 40.1779 18.4202C40.8615 18.4202 41.2637 18.0057 41.2966 17.974L46.0884 13.3593C46.7064 12.7643 46.7057 11.7993 46.0884 11.2048Z" fill="#FFE600"/>
<path d="M46.0883 11.2048C40.986 6.29193 34.207 3.5863 27 3.5863V13.1603C31.5535 13.1603 35.8362 14.8699 39.059 17.974C39.3557 18.2596 39.7581 18.4203 40.1777 18.4203C40.8613 18.4203 41.2635 18.0058 41.2964 17.9741L46.0883 13.3594C46.7062 12.7643 46.7056 11.7993 46.0883 11.2048Z" fill="#FFAA32"/>
<path d="M39.0591 41.1985C40.4203 39.8878 44.034 36.0119 44.0578 29.5831C44.0569 25.2 42.2818 21.0772 39.0591 17.9742L46.0883 11.205C51.1902 16.1175 54 22.6456 54 29.5863C54 36.5271 51.1902 43.0552 46.0883 47.9677C45.7793 48.2652 45.3745 48.4139 44.9697 48.4139C44.5648 48.4139 44.1599 48.2651 43.8509 47.9676L39.0591 43.3529C38.4412 42.758 38.4412 41.7934 39.0591 41.1985Z" fill="#FF1E5A"/>
<path d="M9.94222 29.5831C9.94307 25.2 11.7182 21.0772 14.9409 17.9742L7.91174 11.205C2.80979 16.1175 0 22.6456 0 29.5863L9.94222 29.5831Z" fill="#00D200"/>
<path d="M39.0591 41.1984C40.4203 39.8877 44.034 36.0118 44.0578 29.583L54 29.5863C54 36.527 51.1902 43.0551 46.0883 47.9676C45.7793 48.2651 45.3745 48.4138 44.9697 48.4138C44.5648 48.4138 44.1599 48.265 43.8509 47.9675L39.0591 43.3528C38.4412 42.7579 38.4412 41.7934 39.0591 41.1984Z" fill="#C40050"/>
<path d="M22.7263 34.1462C24.6645 36.0126 27.8182 36.0126 29.7565 34.1462C32.2051 31.7883 39.8885 20.2006 40.7565 18.887C41.1547 18.2846 41.0648 17.4968 40.5405 16.9918C40.0162 16.4869 39.1981 16.4004 38.5725 16.7838C37.2084 17.6197 25.1749 25.0185 22.7263 27.3764C20.788 29.2429 20.788 32.2798 22.7263 34.1462Z" fill="#003C50"/>
<path d="M22.7264 34.1461L40.5405 16.9918C40.0162 16.4869 39.1981 16.4004 38.5725 16.7838C37.2085 17.6197 25.1749 25.0185 22.7263 27.3764C20.7881 29.2428 20.7881 32.2797 22.7264 34.1461Z" fill="#001428"/>
</svg>
