<svg width="57" height="54" viewBox="0 0 57 54" fill="none" xmlns="http://www.w3.org/2000/svg">
<path d="M28.5 0C19.9785 0.00991406 13.073 6.55193 13.0625 14.625V23.625C13.0625 24.2463 13.5942 24.75 14.25 24.75H19.0001C19.6559 24.75 20.1876 24.2463 20.1876 23.625V14.625C20.1875 10.2757 23.9092 6.75 28.5 6.75C33.0909 6.75 36.8126 10.2757 36.8126 14.625V19.1251C36.8126 19.7464 37.3443 20.2501 38.0001 20.2501H42.75C43.4059 20.2501 43.9376 19.7464 43.9376 19.1251V14.625C43.9271 6.55193 37.0215 0.00991406 28.5 0Z" fill="#8D8D8D"/>
<path d="M14.25 22.4999H42.75C46.0291 22.4999 48.6874 25.0183 48.6874 28.1248V48.3748C48.6874 51.4815 46.0291 53.9999 42.75 53.9999H14.25C10.9708 53.9999 8.3125 51.4815 8.3125 48.375V28.1249C8.3125 25.0183 10.9708 22.4999 14.25 22.4999Z" fill="#FFC107"/>
<path d="M34.4375 34.8751C34.4513 31.7685 31.8042 29.2394 28.5251 29.2264C25.2459 29.2133 22.5764 31.721 22.5626 34.8276C22.553 36.9749 23.8347 38.94 25.8661 39.8925L24.9493 45.9675C24.8575 46.5827 25.3095 47.1519 25.9588 47.239C26.0138 47.2463 26.0694 47.25 26.1249 47.25H30.875C31.5308 47.2561 32.0676 46.7575 32.0741 46.1362C32.0746 46.0797 32.0708 46.0234 32.0624 45.9675L31.1456 39.8925C33.1525 38.9405 34.4248 37.0012 34.4375 34.8751Z" fill="#8D8D8D"/>
</svg>
